<svg xmlns="http://www.w3.org/2000/svg" width="12" height="12" viewBox="0 0 12 12">
  <path id="noun-verified-1133212" d="M75.824,11.547l-.852.382a.857.857,0,0,1-1.045-.28l-.547-.757a.429.429,0,0,0-.3-.175l-.929-.1a.857.857,0,0,1-.765-.765l-.1-.929a.429.429,0,0,0-.175-.3l-.757-.547a.857.857,0,0,1-.28-1.045l.382-.852a.429.429,0,0,0,0-.35l-.382-.852a.857.857,0,0,1,.28-1.045l.757-.547a.429.429,0,0,0,.175-.3l.1-.929a.857.857,0,0,1,.765-.765l.929-.1a.429.429,0,0,0,.3-.175l.547-.757a.857.857,0,0,1,1.045-.28l.852.382a.429.429,0,0,0,.35,0l.852-.382a.857.857,0,0,1,1.045.28l.547.757a.429.429,0,0,0,.3.175l.929.1a.857.857,0,0,1,.765.765l.1.929a.429.429,0,0,0,.175.3l.757.547a.857.857,0,0,1,.28,1.045l-.382.852a.429.429,0,0,0,0,.35l.382.852a.857.857,0,0,1-.28,1.045l-.757.547a.429.429,0,0,0-.175.3l-.1.929a.857.857,0,0,1-.765.765l-.929.1a.429.429,0,0,0-.3.175l-.547.757a.857.857,0,0,1-1.045.28l-.852-.382A.429.429,0,0,0,75.824,11.547ZM73.684,5.193l-.727.727L75.4,8.362l3.748-3.748-.727-.727L75.4,6.907Z" transform="translate(-69.999 -0.004)" fill="#00ab2e" fill-rule="evenodd"/>
</svg>
