<svg width="262" height="174" viewBox="0 0 262 174" fill="none" xmlns="http://www.w3.org/2000/svg">
<g clip-path="url(#clip0_519_36410)">
<path d="M132.727 48.9007C130.39 45.0364 127.622 40.9104 123.287 39.6486C118.267 38.1873 113.109 41.0902 108.735 43.9547C95.6521 52.5215 83.0533 61.8054 70.9961 71.764L71.0093 71.914C80.3963 71.2666 89.7833 70.6192 99.1703 69.9717C105.952 69.504 112.968 68.9717 118.961 65.7628C121.235 64.5452 123.452 62.9187 126.03 62.8053C129.232 62.6645 132.023 64.9011 134.217 67.2378C147.196 81.06 150.951 102.198 165.512 114.341C156.331 91.6952 145.368 69.813 132.727 48.9007Z" fill="#E7E5FF"/>
<path d="M212.503 166.142C211.068 164.329 210.482 163.905 209.066 162.076C197.539 147.165 186.704 131.75 176.562 115.832C169.673 105.021 163.126 94.0025 156.92 82.7763C153.966 77.4392 151.093 72.0603 148.3 66.6394C146.133 62.4362 144.015 58.2079 141.945 53.9544C141.353 52.7395 140.778 51.5191 140.205 50.2958C138.856 47.4192 137.533 44.5287 136.111 41.6911C134.492 38.4571 132.52 35.0666 129.546 32.8938C128.193 31.8644 126.575 31.2415 124.88 31.098C122.459 30.9416 120.225 31.9414 118.125 33.0334C102.762 41.046 88.378 51.0918 75.3683 62.5228C62.3251 73.9795 50.6667 86.9228 40.6306 101.089C40.3236 101.527 39.5975 101.108 39.9074 100.667C41.1277 98.9411 42.3722 97.2338 43.6409 95.5451C59.416 74.5615 78.7586 56.5168 100.785 42.2357C104.49 39.8339 108.266 37.5447 112.111 35.3682C114.049 34.2706 115.995 33.187 117.975 32.1704C119.915 31.1734 121.976 30.2769 124.193 30.2434C131.738 30.1261 135.645 38.6721 138.329 44.4225C139.172 46.2323 140.025 48.0364 140.889 49.835C144.154 56.6634 147.543 63.4295 151.059 70.1332C153.229 74.2722 155.446 78.3869 157.711 82.4775C164.759 95.2155 172.25 107.696 180.184 119.918C190.695 136.108 201.121 150.41 213.095 165.55C213.425 165.969 212.836 166.566 212.503 166.142Z" fill="#F8F8F8"/>
<path d="M74.6215 58.301C74.1831 57.8122 73.7475 57.3235 73.3063 56.8347C69.8269 52.9862 66.0936 49.1824 61.3157 46.9761C59.0376 45.8908 56.5507 45.3143 54.0275 45.2864C51.4194 45.2948 48.87 45.979 46.4602 46.937C45.3208 47.3922 44.2066 47.9089 43.1093 48.459C41.8554 49.0902 40.6239 49.7633 39.3982 50.442C37.0972 51.7155 34.826 53.0449 32.5847 54.4301C28.1252 57.1866 23.8053 60.1535 19.6251 63.3308C17.4581 64.9786 15.3359 66.6803 13.2583 68.4361C11.326 70.0671 9.43278 71.7418 7.57863 73.4604C7.18213 73.8262 6.5901 73.2342 6.9866 72.8683C7.47527 72.4131 7.96954 71.9606 8.4638 71.5138C9.86 70.2514 11.2786 69.0133 12.7195 67.7993C15.3471 65.5818 18.0427 63.45 20.8063 61.4038C25.1038 58.22 29.5493 55.2521 34.1428 52.5003C36.4382 51.1262 38.7652 49.8099 41.1238 48.5512C41.8359 48.1714 42.5564 47.8 43.2852 47.4481C44.9388 46.6138 46.6571 45.9143 48.4232 45.3562C50.9249 44.5468 53.5718 44.2867 56.1833 44.5938C58.7047 44.9606 61.134 45.8011 63.343 47.071C68.0342 49.6935 71.6727 53.7486 75.2135 57.7061C75.571 58.1082 74.9817 58.7031 74.6215 58.301Z" fill="#F8F8F8"/>
<path d="M170.742 98.1849L181.983 94.0727L187.565 92.031C189.382 91.3661 191.196 90.6091 193.075 90.1329C194.708 89.6664 196.442 89.6885 198.062 90.1965C199.508 90.7315 200.83 91.5517 201.952 92.6083C203.099 93.664 204.165 94.8031 205.143 96.0163C206.358 97.4768 207.556 98.9527 208.758 100.424C213.721 106.494 218.652 112.592 223.551 118.715C228.449 124.839 233.314 130.988 238.147 137.164C242.992 143.354 247.803 149.571 252.581 155.813C253.166 156.578 253.751 157.343 254.336 158.108C254.658 158.531 255.386 158.114 255.059 157.685C250.246 151.38 245.399 145.101 240.519 138.847C235.626 132.579 230.7 126.337 225.74 120.122C220.78 113.907 215.787 107.719 210.76 101.557C209.508 100.022 208.253 98.4891 206.997 96.9575C205.937 95.6656 204.889 94.3597 203.727 93.1572C201.593 90.95 198.927 88.9994 195.736 88.9465C193.859 88.9154 192.043 89.5108 190.3 90.1416C188.421 90.8216 186.546 91.5142 184.669 92.2008L173.349 96.3418L170.519 97.377C170.017 97.5607 170.234 98.3707 170.742 98.1849L170.742 98.1849Z" fill="#F8F8F8"/>
<path d="M59.8364 51.8187C54.1238 48.8823 46.8081 49.4574 41.5586 53.126C51.5716 54.8537 61.475 57.1655 71.2181 60.0494C67.1722 57.678 64.0073 53.9626 59.8364 51.8187Z" fill="#E7E5FF"/>
<path d="M41.5021 53.1172L40.4023 54.0112C40.7743 53.6983 41.161 53.4049 41.5583 53.1273C41.5395 53.1241 41.5208 53.1204 41.5021 53.1172Z" fill="#E7E5FF"/>
<path d="M201.531 98.2268C200.424 96.8796 199.228 95.4691 197.573 94.9219L196.027 94.9828C207.791 115.772 223.678 133.937 242.713 148.364C228.986 131.651 215.258 114.939 201.531 98.2268Z" fill="#E7E5FF"/>
<path d="M105.438 87.1094C106.153 89.7079 107.764 91.9696 109.986 93.4944C110.845 94.0794 111.862 94.6405 112.155 95.6375C112.31 96.2731 112.215 96.9437 111.889 97.5111C111.564 98.0712 111.169 98.5873 110.713 99.0469L110.672 99.2029C108.54 97.9395 106.512 96.3412 105.334 94.1606C104.157 91.98 103.992 89.122 105.438 87.1094" fill="#E7E5FF"/>
<path d="M176.411 148.953C177.126 151.552 178.737 153.813 180.959 155.338C181.818 155.923 182.834 156.484 183.128 157.481C183.283 158.117 183.187 158.787 182.862 159.355C182.537 159.915 182.142 160.431 181.686 160.891L181.644 161.047C179.512 159.783 177.484 158.185 176.307 156.004C175.129 153.824 174.965 150.966 176.411 148.953" fill="#E7E5FF"/>
<path d="M34.7702 144.688C35.4853 147.286 37.0963 149.548 39.3182 151.073C40.1772 151.658 41.1936 152.219 41.4874 153.216C41.642 153.851 41.5468 154.522 41.2213 155.089C40.8965 155.649 40.5012 156.165 40.0452 156.625L40.0036 156.781C37.8719 155.518 35.8438 153.919 34.6663 151.739C33.4888 149.558 33.3244 146.7 34.7702 144.688" fill="#E7E5FF"/>
<path d="M197.765 31.0743C206.345 31.0743 213.3 24.118 213.3 15.5371C213.3 6.95621 206.345 0 197.765 0C189.186 0 182.23 6.95621 182.23 15.5371C182.23 24.118 189.186 31.0743 197.765 31.0743Z" fill="#7065E4"/>
<path d="M225.8 3.61551C218.271 2.5977 209.676 6.6677 207.724 14.0112C207.233 12.7056 206.338 11.59 205.171 10.8258C204.004 10.0616 202.624 9.6883 201.231 9.75981C199.838 9.83131 198.503 10.3439 197.421 11.2236C196.338 12.1033 195.563 13.3045 195.207 14.6536L196.069 15.2711C212.203 18.7606 228.904 18.6851 245.006 15.0498C239.769 9.54509 233.329 4.63331 225.8 3.61551Z" fill="#F8F8F8"/>
<path d="M193.511 24.3343C185.982 23.3164 177.387 27.3865 175.435 34.73C174.943 33.4243 174.049 32.3088 172.882 31.5446C171.715 30.7804 170.335 30.4071 168.942 30.4786C167.549 30.5501 166.214 31.0627 165.132 31.9424C164.049 32.822 163.274 34.0232 162.918 35.3724L163.78 35.9898C179.914 39.4794 196.615 39.4038 212.717 35.7685C207.48 30.2638 201.04 25.3521 193.511 24.3343Z" fill="#F8F8F8"/>
<path d="M259.221 28.253C259.19 28.2531 259.159 28.2482 259.129 28.2387C178.59 2.76448 107.605 6.09569 62.2388 13.376C56.0649 14.3665 49.8745 15.5104 43.8395 16.7763C42.2988 17.0991 40.7004 17.4451 39.0887 17.8054C37.164 18.2341 35.2648 18.6756 33.4437 19.1171C32.6572 19.3033 31.8861 19.4911 31.1303 19.6803C29.9855 19.9629 28.8239 20.2574 27.5787 20.5811C26.1874 20.9399 24.7736 21.3163 23.376 21.6998C23.3709 21.7016 23.3657 21.703 23.3604 21.7042L23.3605 21.7045C21.7819 22.1356 20.2116 22.5792 18.693 23.0222C17.8711 23.2596 17.0775 23.4937 16.3173 23.7249C16.2324 23.7484 16.1571 23.771 16.0808 23.7942L15.9175 23.8439C15.8229 23.8728 15.7295 23.901 15.6361 23.9278L15.6302 23.9296L15.6303 23.9299L15.3831 24.0067C15.0883 24.0959 14.8007 24.1831 14.5178 24.27C7.04128 26.5751 2.9312 28.2149 2.8906 28.231C2.85347 28.2459 2.81377 28.2533 2.77377 28.2528C2.73377 28.2524 2.69426 28.2441 2.65748 28.2283C2.6207 28.2126 2.58737 28.1898 2.55942 28.1612C2.53146 28.1325 2.5094 28.0987 2.49452 28.0616C2.47964 28.0244 2.47222 27.9847 2.47268 27.9447C2.47313 27.9047 2.48147 27.8652 2.4972 27.8284C2.51293 27.7916 2.53575 27.7583 2.56436 27.7303C2.59296 27.7024 2.6268 27.6803 2.66393 27.6654C2.70483 27.6494 6.83499 26.0012 14.3387 23.6874C14.6226 23.6003 14.911 23.5131 15.2067 23.4235L15.4364 23.3521C15.4442 23.3492 15.4521 23.3468 15.4601 23.3444C15.5531 23.3179 15.6459 23.2897 15.7402 23.2611L15.9038 23.2114C15.9853 23.1867 16.0656 23.1623 16.1479 23.1397C16.9029 22.91 17.6992 22.6753 18.5231 22.437C20.0423 21.9937 21.6141 21.5501 23.194 21.1184C23.1989 21.1167 23.2039 21.1155 23.2088 21.114V21.1137C24.6114 20.729 26.0303 20.3512 27.4261 19.9912C28.6733 19.6672 29.8371 19.3721 30.9838 19.0888C31.7428 18.8999 32.5154 18.7118 33.3017 18.5245C35.1249 18.0824 37.0279 17.6403 38.9561 17.2107C40.5703 16.8501 42.1714 16.5032 43.7146 16.1801C49.759 14.9121 55.959 13.7664 62.1423 12.7745C107.574 5.48372 178.66 2.14714 259.313 27.658C259.382 27.6799 259.441 27.7259 259.48 27.7876C259.518 27.8494 259.533 27.9229 259.522 27.9948C259.511 28.0667 259.474 28.1322 259.419 28.1796C259.364 28.2269 259.294 28.253 259.221 28.253Z" fill="#F8F8F8"/>
<path d="M80.1071 127.907C80.0016 127.599 79.8241 127.32 79.5893 127.094C79.5026 127.013 79.4088 126.941 79.309 126.878C78.514 126.347 77.326 126.229 76.5706 126.878C76.4945 126.944 76.4242 127.016 76.3604 127.094C76.135 127.371 75.9035 127.642 75.6659 127.907C75.2761 128.352 74.877 128.782 74.4597 129.199C74.3409 129.315 74.2221 129.434 74.1003 129.549C74.0302 129.619 73.9602 129.686 73.8901 129.753C73.6221 130.009 73.3479 130.256 73.0707 130.5C72.9245 130.631 72.7783 130.759 72.629 130.884C72.4067 131.07 72.1843 131.255 71.9589 131.435C71.9376 131.45 71.9163 131.466 71.8949 131.484C71.8889 131.487 71.8858 131.493 71.8797 131.496C71.8767 131.496 71.8736 131.496 71.8706 131.502C71.8623 131.505 71.855 131.511 71.8493 131.517C71.7822 131.563 71.7366 131.594 71.703 131.621C71.7152 131.615 71.7274 131.606 71.7396 131.6C71.6848 131.642 71.6269 131.685 71.5721 131.728C71.039 132.121 70.4938 132.498 69.9363 132.852C68.5572 133.734 67.1086 134.504 65.6049 135.152C65.5043 135.191 65.4008 135.234 65.2972 135.274C61.3601 136.887 57.0892 137.516 52.8541 137.108C52.4216 137.074 51.989 137.028 51.5565 136.971C51.0569 136.897 50.5604 136.809 50.067 136.709C48.1884 136.334 46.3502 135.779 44.578 135.051C42.3611 134.036 40.2527 132.799 38.2849 131.359C37.9803 131.143 37.6726 130.926 37.365 130.716C37.7153 129.857 38.0595 128.998 38.3945 128.133C38.5621 127.715 38.7235 127.298 38.8819 126.878C40.1277 123.639 41.2974 120.37 42.4184 117.089C43.5515 113.765 44.6206 110.422 45.6258 107.06C45.7294 106.719 45.8299 106.378 45.9274 106.036C46.4544 104.26 46.96 102.48 47.4443 100.696C47.49 100.522 47.5388 100.352 47.5814 100.178C47.7215 99.6662 47.8586 99.1544 47.9926 98.6426C48.2972 97.488 47.6088 96.1079 46.3965 95.8307C45.8128 95.681 45.1938 95.7638 44.6699 96.0616C44.146 96.3593 43.7581 96.8489 43.588 97.4271C43.4571 97.9206 43.3261 98.4111 43.192 98.9046C42.5493 101.29 41.8731 103.667 41.1634 106.036C41.0598 106.378 40.9563 106.719 40.8527 107.06C39.287 112.221 37.568 117.33 35.6957 122.387C35.4703 122.999 35.2419 123.61 35.0104 124.218C34.8977 124.516 34.785 124.815 34.6692 125.114C34.4468 125.702 34.2184 126.29 33.9899 126.878C33.8589 127.222 33.7249 127.566 33.5909 127.907C33.5026 128.124 33.4173 128.34 33.332 128.553C32.4635 128.241 31.5637 128.025 30.6484 127.907L30.5022 127.889C29.7926 127.804 29.075 127.81 28.3669 127.907C27.3072 128.031 26.2876 128.386 25.3802 128.947C24.4728 129.508 23.6997 130.262 23.1156 131.155C21.6626 133.443 21.6809 136.715 23.7187 138.658C25.8174 140.66 28.9944 140.645 31.4648 139.393C32.7739 138.684 33.8777 137.649 34.6692 136.389C34.9724 135.932 35.251 135.459 35.5038 134.972C35.5678 135.015 35.6318 135.057 35.6957 135.103C35.9394 135.274 36.1831 135.447 36.4237 135.618C37.8258 136.634 39.3034 137.541 40.8435 138.332C44.1552 139.979 47.72 141.057 51.389 141.522C51.4712 141.531 51.5504 141.543 51.6326 141.553C52.0378 141.604 52.4459 141.644 52.8541 141.677C58.7093 142.119 64.5716 140.92 69.784 138.217C70.2257 137.988 70.6633 137.748 71.0969 137.498C71.7701 137.108 72.428 136.693 73.0707 136.255C73.421 136.017 73.7622 135.776 74.1003 135.523C75.5778 134.435 76.955 133.217 78.2155 131.883C78.6937 131.38 79.1516 130.861 79.5893 130.326C80.0031 129.888 80.2416 129.314 80.2594 128.712C80.257 128.436 80.2054 128.164 80.1071 127.907ZM29.6676 135.164C29.7316 135.118 29.7955 135.07 29.8565 135.021C29.8382 135.067 29.7498 135.118 29.6676 135.164H29.6676ZM30.6454 134.18C30.5753 134.259 30.5114 134.338 30.4413 134.418C30.2282 134.656 29.9992 134.88 29.7559 135.088C29.7224 135.118 29.6859 135.149 29.6493 135.176C29.6489 135.176 29.6485 135.176 29.6481 135.176C29.6478 135.177 29.6474 135.177 29.6472 135.177C29.6469 135.177 29.6466 135.178 29.6465 135.178C29.6463 135.178 29.6463 135.179 29.6463 135.179C29.6023 135.199 29.5595 135.221 29.5183 135.246C29.3874 135.325 29.2533 135.399 29.1163 135.466C28.8479 135.564 28.5718 135.641 28.2908 135.694C28.0749 135.71 27.8582 135.712 27.642 135.7H27.6359C27.4867 135.667 27.3393 135.626 27.1942 135.578C27.1211 135.542 27.051 135.499 26.981 135.456C26.9536 135.432 26.9292 135.408 26.914 135.392C26.8842 135.365 26.8567 135.336 26.8318 135.304C26.8318 135.304 26.8317 135.303 26.8315 135.303C26.8314 135.303 26.8312 135.302 26.8309 135.302C26.8306 135.302 26.8303 135.301 26.8299 135.301C26.8295 135.301 26.8291 135.301 26.8287 135.301C26.7952 135.24 26.7586 135.179 26.7251 135.118C26.7234 135.117 26.7223 135.115 26.7221 135.112C26.6977 135.036 26.6764 134.957 26.6581 134.878C26.6515 134.739 26.6525 134.599 26.6612 134.46C26.702 134.266 26.757 134.074 26.8257 133.888C26.8873 133.755 26.9575 133.627 27.0358 133.504C27.0419 133.491 27.0724 133.443 27.1059 133.388C27.1089 133.385 27.1089 133.385 27.1089 133.382C27.1546 133.33 27.2003 133.275 27.2491 133.226C27.3313 133.135 27.4196 133.056 27.508 132.974C27.6798 132.861 27.8577 132.758 28.041 132.666C28.3318 132.563 28.6302 132.482 28.9335 132.425C29.3808 132.39 29.8303 132.394 30.2768 132.437C30.6998 132.511 31.1171 132.614 31.5257 132.745C31.278 133.226 30.9961 133.688 30.682 134.128C30.6698 134.146 30.6576 134.165 30.6454 134.18ZM27.2582 133.178C27.2313 133.221 27.1997 133.261 27.1638 133.296C27.1879 133.252 27.2199 133.211 27.2582 133.178Z" fill="#262C3D"/>
<path d="M70.952 96.7927C70.9246 97.7493 70.8971 98.7059 70.8697 99.6625C70.8118 101.786 70.7519 103.91 70.69 106.036C70.626 108.427 70.559 110.818 70.489 113.207C70.4555 114.441 70.4209 115.675 70.3854 116.909C70.291 120.232 70.1976 123.555 70.1052 126.877C70.096 127.221 70.0838 127.562 70.0747 127.907C70.029 129.555 69.9833 131.203 69.9376 132.851C69.8859 134.639 69.8351 136.428 69.7853 138.216C69.7488 139.556 69.7112 140.898 69.6726 142.24C69.3985 151.968 69.1244 161.695 68.8502 171.423C68.8386 172.025 68.5942 172.6 68.1683 173.026C67.7424 173.452 67.168 173.696 66.5657 173.708C65.9614 173.703 65.3831 173.46 64.9557 173.033C64.5284 172.606 64.2861 172.027 64.2812 171.423C64.4335 165.951 64.5879 160.48 64.7442 155.008C64.8813 150.061 65.0204 145.113 65.1615 140.166C65.2072 138.536 65.2529 136.905 65.2986 135.273C65.3687 132.817 65.4377 130.362 65.5057 127.907C65.5149 127.562 65.5271 127.221 65.5362 126.877C65.5423 126.575 65.5514 126.277 65.5606 125.975C65.6946 121.207 65.8286 116.439 65.9626 111.669C66.0175 109.792 66.0703 107.914 66.121 106.036C66.1819 103.894 66.2429 101.753 66.3038 99.6137C66.3312 98.6724 66.3556 97.7341 66.383 96.7927C66.3946 96.1903 66.639 95.6159 67.0649 95.1899C67.4908 94.7638 68.0652 94.5194 68.6675 94.5078C69.2718 94.5127 69.8501 94.755 70.2775 95.1824C70.7048 95.6099 70.9471 96.1882 70.952 96.7927Z" fill="#262C3D"/>
<path d="M196.275 97.427C193.88 106.499 191.017 115.442 187.697 124.218C186.781 126.639 185.844 129.055 184.843 131.442L185.073 130.896C184.626 132.033 184.055 133.117 183.371 134.129C183.324 134.194 183.277 134.259 183.228 134.323C183.465 134.02 183.51 133.961 183.363 134.144C183.286 134.235 183.209 134.327 183.129 134.416C182.916 134.655 182.687 134.879 182.444 135.088C182.383 135.14 182.321 135.191 182.258 135.241L182.544 135.019C182.51 135.097 182.278 135.201 182.205 135.246C181.971 135.387 181.726 135.511 181.473 135.617L182.019 135.386C181.604 135.553 181.171 135.672 180.73 135.74L181.337 135.658C180.903 135.718 180.463 135.723 180.028 135.672L180.635 135.754C180.279 135.705 179.931 135.611 179.598 135.475L180.144 135.705C179.966 135.628 179.795 135.536 179.632 135.432C179.55 135.378 179.296 135.186 179.628 135.439C179.973 135.703 179.672 135.462 179.601 135.392C179.542 135.334 179.489 135.27 179.431 135.211C179.162 134.935 179.734 135.685 179.552 135.363C179.454 135.201 179.365 135.035 179.284 134.864L179.514 135.41C179.41 135.15 179.335 134.879 179.293 134.602L179.374 135.209C179.331 134.865 179.33 134.517 179.373 134.172L179.292 134.78C179.347 134.395 179.449 134.019 179.595 133.658L179.364 134.204C179.466 133.962 179.586 133.728 179.723 133.504C179.786 133.388 179.861 133.279 179.945 133.178C179.96 133.182 179.559 133.638 179.772 133.408C179.827 133.348 179.879 133.285 179.936 133.225C180.026 133.129 180.123 133.042 180.218 132.951C180.536 132.648 179.772 133.246 180.14 133.006C180.406 132.831 180.686 132.678 180.977 132.549L180.431 132.779C180.919 132.579 181.43 132.442 181.953 132.371L181.346 132.453C182 132.378 182.661 132.385 183.314 132.476L182.706 132.395C183.532 132.52 184.34 132.747 185.11 133.071L184.564 132.841C186.206 133.545 187.66 134.592 189.111 135.618C190.513 136.634 191.991 137.541 193.53 138.332C196.842 139.979 200.407 141.057 204.076 141.522C209.338 142.167 214.678 141.48 219.606 139.524C224.533 137.567 228.891 134.405 232.278 130.326C232.692 129.888 232.93 129.313 232.947 128.71C232.943 128.105 232.703 127.526 232.278 127.095C231.44 126.325 229.857 126.108 229.047 127.095C228.28 128.031 227.456 128.919 226.578 129.753C226.168 130.142 225.748 130.519 225.316 130.884C225.07 131.092 224.82 131.296 224.567 131.496C224.447 131.591 224.074 131.843 224.647 131.436C224.515 131.529 224.389 131.631 224.26 131.727C222.341 133.141 220.263 134.324 218.067 135.25L218.612 135.02C216.256 136.009 213.781 136.687 211.25 137.037L211.857 136.956C209.253 137.298 206.615 137.294 204.012 136.944L204.62 137.026C202.017 136.668 199.472 135.975 197.048 134.963L197.594 135.194C195.254 134.158 193.034 132.872 190.973 131.358C189.9 130.563 188.768 129.851 187.588 129.227C186.212 128.524 184.723 128.072 183.19 127.89C180.315 127.552 177.385 128.672 175.804 131.156C174.35 133.442 174.368 136.714 176.406 138.658C178.504 140.66 181.681 140.643 184.153 139.391C186.535 138.185 187.965 135.679 188.971 133.316C191.234 127.998 193.238 122.557 195.105 117.089C196.953 111.679 198.628 106.214 200.131 100.695C200.317 100.011 200.5 99.3269 200.681 98.6419C200.986 97.4877 200.297 96.1072 199.086 95.8312C198.502 95.6809 197.882 95.7633 197.358 96.061C196.834 96.3588 196.446 96.8486 196.275 97.4271L196.275 97.427Z" fill="#262C3D"/>
<path d="M219.068 96.7927L218.245 125.976L217.427 155.007L216.965 171.423C216.97 172.027 217.212 172.606 217.64 173.033C218.067 173.46 218.645 173.703 219.249 173.708C219.852 173.696 220.426 173.452 220.852 173.026C221.278 172.6 221.522 172.025 221.534 171.423L222.356 142.24L223.174 113.208L223.637 96.7927C223.631 96.1883 223.389 95.6101 222.962 95.1827C222.535 94.7553 221.956 94.513 221.352 94.5078C220.75 94.5195 220.176 94.7639 219.75 95.1899C219.324 95.6159 219.079 96.1903 219.068 96.7927Z" fill="#262C3D"/>
<path d="M139.994 163.269H140.704V130.963H157.252V130.256H140.704V116.624H153.484C153.296 116.386 153.103 116.151 152.905 115.918H140.704V106.915C140.469 106.815 140.233 106.719 139.994 106.628V115.918H126.089V104.383C125.85 104.394 125.616 104.41 125.379 104.43V115.918H114.285V107.312C114.047 107.417 113.812 107.528 113.58 107.645V115.918H104.254V116.624H113.58V130.256H104.254V130.963H113.58V163.269H114.285V130.963C115.742 130.963 117.185 131.25 118.531 131.807C119.877 132.365 121.1 133.182 122.13 134.212C123.161 135.243 123.978 136.466 124.535 137.812C125.093 139.159 125.379 140.602 125.379 142.059V163.269H126.089V130.963H139.994V163.269ZM114.285 130.256V116.624H125.379V130.256H114.285ZM126.089 130.256V116.624H126.367C128.157 116.624 129.929 116.977 131.582 117.662C133.236 118.347 134.738 119.351 136.003 120.617C137.269 121.883 138.272 123.386 138.957 125.039C139.642 126.693 139.994 128.466 139.994 130.256H126.089Z" fill="#D4FAFF"/>
<path d="M135.662 153.587C134.769 157.571 132.629 161.167 129.554 163.853C129.329 164.048 129.104 164.237 128.869 164.423C128.299 164.475 127.734 164.528 127.172 164.581C126.706 164.624 126.246 164.67 125.79 164.712L125.707 164.722L125.649 164.222L125.418 162.199C124.52 160.733 123.963 159.083 123.789 157.372C123.615 155.661 123.828 153.933 124.413 152.316C125.217 150.147 126.673 148.231 128.105 146.33C130.081 143.704 132.003 141.108 132.073 137.906C133.046 139.151 133.855 140.516 134.48 141.967C133.89 142.245 133.36 142.635 132.92 143.116C132.795 143.253 132.67 143.445 132.756 143.609C132.829 143.749 133.012 143.783 133.17 143.801C133.551 143.841 133.935 143.88 134.315 143.92C134.62 143.954 134.925 143.984 135.229 144.018C135.598 145.227 135.848 146.47 135.975 147.728C136.181 149.685 136.075 151.663 135.662 153.587Z" fill="#2AD3E7"/>
<path d="M145.773 145.604C143.975 146.911 142.924 148.791 142.108 150.862C141.271 151.13 140.519 151.611 139.924 152.258C139.799 152.395 139.674 152.587 139.76 152.751C139.833 152.891 140.016 152.925 140.174 152.943C140.555 152.983 140.938 153.022 141.319 153.062C140.503 155.511 139.754 158.046 138.31 160.115C137.35 161.48 136.098 162.616 134.645 163.438C134.249 163.664 133.84 163.866 133.421 164.045C131.873 164.163 130.355 164.29 128.867 164.425C128.297 164.477 127.732 164.53 127.17 164.584C126.704 164.626 126.244 164.672 125.787 164.715C125.784 164.547 125.784 164.38 125.787 164.212C125.884 159.749 127.526 155.457 130.433 152.069C130.57 151.91 130.71 151.755 130.853 151.6C132.326 150.026 134.058 148.718 135.973 147.731C138.992 146.161 142.375 145.427 145.773 145.604Z" fill="#262C3D"/>
<path d="M127.699 163.021L127.348 164.057L127.172 164.584C126.706 164.626 126.246 164.672 125.789 164.715L125.707 164.724C125.201 164.776 124.698 164.827 124.196 164.879C124.065 164.727 123.934 164.571 123.806 164.413C120.627 160.562 119.1 155.609 119.561 150.637C120.022 145.664 122.432 141.076 126.264 137.875C125.862 139.98 126.331 141.997 127.102 143.998C127.019 144.032 126.94 144.065 126.864 144.102C126.275 144.38 125.745 144.77 125.305 145.251C125.18 145.388 125.055 145.58 125.14 145.744C125.213 145.884 125.396 145.918 125.554 145.936C125.935 145.976 126.319 146.015 126.7 146.055C127.004 146.088 127.309 146.119 127.613 146.152C127.757 146.168 127.9 146.183 128.043 146.198C128.064 146.244 128.083 146.286 128.104 146.332C128.972 148.215 129.907 150.107 130.434 152.069C130.566 152.561 130.67 153.06 130.745 153.564C130.979 155.268 130.827 157.003 130.3 158.64C129.773 160.277 128.884 161.774 127.699 163.021Z" fill="#262C3D"/>
<path d="M158.361 118.834C155.738 113.718 151.676 109.413 146.898 106.25C142.104 103.092 136.604 101.168 130.887 100.651C130.138 100.583 129.386 100.543 128.633 100.531C127.743 100.518 114.358 104.38 109.873 107.533C105.392 110.648 101.705 114.772 99.1109 119.575C96.5212 124.403 95.2474 129.828 95.4174 135.305C95.6394 140.814 97.1749 146.191 99.8959 150.987C102.58 155.767 106.391 159.819 110.997 162.791C115.669 165.772 120.362 173.678 125.878 173.957C131.436 174.238 137.774 166.781 142.843 164.516C147.912 162.233 152.294 158.662 155.553 154.157C158.72 149.742 160.768 144.625 161.523 139.245C162.307 133.736 161.942 128.054 160.06 122.789C159.578 121.436 159.01 120.115 158.361 118.834C157.819 117.766 156.23 117.372 155.235 118.014C154.723 118.329 154.352 118.83 154.199 119.413C154.046 119.995 154.124 120.613 154.415 121.14C154.734 121.767 155.03 122.405 155.304 123.052L155.073 122.507C156.109 124.997 156.813 127.613 157.168 130.287L157.086 129.679C157.464 132.58 157.457 135.518 157.066 138.418L157.148 137.81C156.753 140.709 155.979 143.544 154.846 146.241L155.077 145.695C154.494 147.072 153.815 148.405 153.045 149.686C152.654 150.333 152.24 150.964 151.802 151.581C151.609 151.852 151.411 152.118 151.211 152.383C150.95 152.729 151.566 151.931 151.297 152.27C151.251 152.328 151.205 152.386 151.159 152.443C151.021 152.616 150.881 152.788 150.738 152.958C149.789 154.091 148.752 155.149 147.639 156.121C147.361 156.363 147.079 156.6 146.793 156.831C146.65 156.946 146.509 157.067 146.36 157.174C146.365 157.17 146.841 156.808 146.559 157.018C146.471 157.084 146.383 157.151 146.295 157.217C145.704 157.655 145.097 158.07 144.475 158.463C143.042 159.366 141.539 160.152 139.98 160.813L140.526 160.583C137.837 161.715 135.011 162.489 132.12 162.883L132.727 162.802C129.838 163.192 126.909 163.197 124.019 162.817L124.626 162.899C121.999 162.546 119.429 161.851 116.982 160.832L117.528 161.062C116.11 160.464 114.744 159.751 113.441 158.932C112.796 158.526 112.169 158.095 111.557 157.638C111.47 157.573 111.384 157.507 111.297 157.442C111.018 157.231 111.497 157.597 111.501 157.6C111.339 157.483 111.183 157.359 111.034 157.227C110.738 156.986 110.448 156.74 110.162 156.489C109.018 155.481 107.95 154.391 106.966 153.226C106.719 152.935 106.478 152.639 106.243 152.339C106.14 152.21 105.954 151.946 106.366 152.501C106.312 152.428 106.255 152.356 106.201 152.284C106.069 152.109 105.94 151.934 105.812 151.757C105.365 151.138 104.94 150.504 104.537 149.854C103.626 148.384 102.831 146.845 102.159 145.252L102.389 145.797C101.29 143.182 100.538 140.433 100.153 137.622L100.235 138.229C99.8877 135.638 99.8827 133.012 100.22 130.419L100.139 131.026C100.485 128.516 101.16 126.061 102.147 123.727L101.917 124.273C102.538 122.812 103.271 121.401 104.109 120.052C104.528 119.377 104.973 118.718 105.442 118.076C105.549 117.93 105.657 117.785 105.766 117.641C105.865 117.511 106.136 117.186 105.673 117.76C105.718 117.703 105.762 117.645 105.807 117.589C106.064 117.262 106.328 116.941 106.598 116.625C107.621 115.427 108.729 114.305 109.914 113.267C110.213 113.005 110.517 112.748 110.826 112.497C110.966 112.382 111.107 112.269 111.25 112.158C111.306 112.113 111.364 112.069 111.421 112.024C110.812 112.508 111.251 112.156 111.39 112.052C112.026 111.575 112.679 111.122 113.35 110.693C114.84 109.74 116.408 108.914 118.037 108.223L117.491 108.453C119.855 107.461 130.327 105.118 132.232 105.373L131.625 105.292C134.424 105.683 137.161 106.439 139.764 107.541L139.218 107.311C140.537 107.871 141.819 108.515 143.056 109.239C143.674 109.601 144.28 109.983 144.874 110.385C145.155 110.575 145.433 110.77 145.708 110.968C145.845 111.068 145.982 111.168 146.118 111.27C146.193 111.326 146.268 111.383 146.344 111.44C146.66 111.677 145.908 111.096 146.239 111.358C147.35 112.231 148.405 113.173 149.397 114.177C149.885 114.674 150.356 115.186 150.81 115.714C151.043 115.985 151.271 116.26 151.494 116.539C151.605 116.678 151.983 117.179 151.52 116.565C151.633 116.715 151.748 116.864 151.859 117.016C152.822 118.319 153.677 119.698 154.415 121.14C154.962 122.206 156.544 122.603 157.541 121.96C158.054 121.644 158.425 121.143 158.578 120.561C158.73 119.979 158.653 119.36 158.361 118.834Z" fill="#262C3D"/>
<path d="M131.742 156.116C131.506 156.127 131.272 156.065 131.073 155.939C130.873 155.813 130.718 155.628 130.627 155.41C130.535 155.193 130.514 154.952 130.564 154.721C130.614 154.491 130.734 154.281 130.907 154.121C130.936 154.005 130.957 153.922 130.986 153.807C130.976 153.782 130.965 153.757 130.955 153.732C129.895 151.204 123.131 158.251 122.839 160.626C122.71 161.677 122.764 162.741 122.999 163.773C120.808 158.993 119.67 153.798 119.663 148.539C119.663 147.22 119.736 145.901 119.883 144.59C120.004 143.515 120.172 142.448 120.387 141.388C121.562 135.638 124.083 130.249 127.744 125.663C129.838 125.78 131.673 125.461 131.85 121.402C131.882 120.681 132.417 120.055 132.535 119.344C132.335 119.37 132.132 119.387 131.932 119.4C131.87 119.403 131.804 119.406 131.742 119.41L131.718 119.411C131.499 119.421 131.281 119.367 131.091 119.256C130.901 119.145 130.748 118.981 130.649 118.785C130.55 118.588 130.51 118.367 130.533 118.149C130.557 117.93 130.643 117.723 130.782 117.552C130.868 117.446 130.954 117.34 131.041 117.234C131.172 117.07 131.306 116.909 131.437 116.745C131.452 116.73 131.466 116.713 131.48 116.696C131.63 116.509 131.781 116.326 131.932 116.139C131.657 115.712 131.287 115.354 130.851 115.093C129.34 114.209 127.256 114.821 126.165 116.188C125.07 117.555 124.864 119.472 125.244 121.18C125.618 122.633 126.236 124.011 127.072 125.257C126.99 125.362 126.905 125.463 126.823 125.568C125.326 127.494 124.02 129.562 122.926 131.743C123.236 129.324 119.45 120.59 117.986 118.74C116.228 116.518 112.622 117.488 112.312 120.305C112.309 120.332 112.306 120.359 112.303 120.386C112.521 120.509 112.734 120.639 112.942 120.777C113.203 120.952 113.406 121.202 113.523 121.494C113.641 121.786 113.667 122.106 113.599 122.414C113.531 122.721 113.372 123 113.142 123.216C112.912 123.431 112.623 123.572 112.312 123.62L112.28 123.625C109.37 127.781 118.701 138.599 121.036 136.17C119.937 139.286 119.247 142.532 118.985 145.826C118.836 147.769 118.845 149.721 119.011 151.663L119.001 151.594C118.482 147.365 109.579 141.077 106.98 141.6C105.482 141.902 104.007 141.833 104.234 143.344C104.238 143.368 104.242 143.393 104.245 143.417C104.649 143.581 105.042 143.77 105.422 143.984C105.639 144.106 105.852 144.237 106.06 144.374C106.322 144.549 106.525 144.799 106.642 145.091C106.759 145.383 106.785 145.704 106.717 146.011C106.649 146.318 106.49 146.598 106.26 146.813C106.031 147.028 105.742 147.169 105.431 147.217L105.399 147.222C105.376 147.225 105.356 147.228 105.333 147.232C104.008 151.791 113.834 159.15 119.807 156.808H119.811C120.403 159.381 121.26 161.885 122.37 164.281H131.512C131.545 164.179 131.575 164.074 131.604 163.973C130.758 164.026 129.908 163.975 129.074 163.822C129.753 162.989 130.431 162.15 131.109 161.318C131.125 161.302 131.139 161.286 131.152 161.269C131.496 160.843 131.843 160.42 132.188 159.994L132.188 159.993C132.206 158.687 132.056 157.384 131.742 156.117L131.742 156.116ZM121.272 135.518L121.277 135.512L121.272 135.525V135.518ZM119.247 153.777L119.168 153.6C119.172 153.472 119.172 153.344 119.168 153.213C119.168 153.177 119.162 153.141 119.162 153.105C119.191 153.331 119.218 153.557 119.25 153.783L119.247 153.777Z" fill="#2AD3E7"/>
<path d="M29.0146 137.093C30.8651 137.093 32.3652 135.593 32.3652 133.742C32.3652 131.891 30.8651 130.391 29.0146 130.391C27.1642 130.391 25.6641 131.891 25.6641 133.742C25.6641 135.593 27.1642 137.093 29.0146 137.093Z" fill="#262C3D"/>
<path d="M69.2217 173.648C71.0722 173.648 72.5723 172.147 72.5723 170.296C72.5723 168.446 71.0722 166.945 69.2217 166.945C67.3712 166.945 65.8711 168.446 65.8711 170.296C65.8711 172.147 67.3712 173.648 69.2217 173.648Z" fill="#262C3D"/>
<path d="M221.827 173.648C223.678 173.648 225.178 172.147 225.178 170.296C225.178 168.446 223.678 166.945 221.827 166.945C219.977 166.945 218.477 168.446 218.477 170.296C218.477 172.147 219.977 173.648 221.827 173.648Z" fill="#262C3D"/>
<path d="M230.054 130.999C231.904 130.999 233.404 129.499 233.404 127.648C233.404 125.797 231.904 124.297 230.054 124.297C228.203 124.297 226.703 125.797 226.703 127.648C226.703 129.499 228.203 130.999 230.054 130.999Z" fill="#262C3D"/>
<path d="M220.304 99.9289C222.154 99.9289 223.654 98.4285 223.654 96.5777C223.654 94.7269 222.154 93.2266 220.304 93.2266C218.453 93.2266 216.953 94.7269 216.953 96.5777C216.953 98.4285 218.453 99.9289 220.304 99.9289Z" fill="#262C3D"/>
<path d="M80.4904 127.648C80.4884 128.504 80.1574 129.327 79.566 129.945C78.9745 130.564 78.1679 130.932 77.313 130.972C76.4581 131.013 75.6204 130.723 74.9731 130.163C74.3259 129.603 73.9188 128.815 73.836 127.963C73.7532 127.111 74.001 126.26 74.5282 125.586C75.0554 124.911 75.8217 124.465 76.6684 124.34C77.5151 124.215 78.3774 124.421 79.0769 124.914C79.7764 125.407 80.2596 126.151 80.4264 126.99C80.4694 127.207 80.4908 127.427 80.4904 127.648Z" fill="#262C3D"/>
<path d="M147.503 109.671C149.353 109.671 150.854 108.171 150.854 106.32C150.854 104.469 149.353 102.969 147.503 102.969C145.652 102.969 144.152 104.469 144.152 106.32C144.152 108.171 145.652 109.671 147.503 109.671Z" fill="#262C3D"/>
<path d="M114.303 106.32C114.301 107.176 113.97 107.998 113.378 108.617C112.787 109.236 111.98 109.604 111.126 109.644C110.271 109.685 109.433 109.395 108.786 108.835C108.138 108.274 107.731 107.487 107.648 106.635C107.566 105.783 107.813 104.932 108.341 104.257C108.868 103.583 109.634 103.137 110.481 103.012C111.328 102.887 112.19 103.093 112.889 103.586C113.589 104.079 114.072 104.822 114.239 105.662C114.282 105.879 114.303 106.099 114.303 106.32Z" fill="#262C3D"/>
<path d="M71.049 96.57C71.047 97.426 70.716 98.2485 70.1246 98.8672C69.5331 99.486 68.7265 99.8536 67.8716 99.8941C67.0167 99.9345 66.1789 99.6447 65.5317 99.0846C64.8845 98.5245 64.4774 97.737 64.3946 96.885C64.3117 96.033 64.5596 95.1817 65.0868 94.5074C65.614 93.8331 66.3803 93.3873 67.227 93.2623C68.0736 93.1373 68.936 93.3427 69.6355 93.8359C70.335 94.3291 70.8182 95.0724 70.985 95.912C71.028 96.1287 71.0494 96.3491 71.049 96.57Z" fill="#262C3D"/>
<path d="M182.534 138.312C184.385 138.312 185.885 136.811 185.885 134.961C185.885 133.11 184.385 131.609 182.534 131.609C180.684 131.609 179.184 133.11 179.184 134.961C179.184 136.811 180.684 138.312 182.534 138.312Z" fill="#262C3D"/>
<path d="M129.838 107.843C132.53 107.843 134.712 105.66 134.712 102.968C134.712 100.276 132.53 98.0938 129.838 98.0938C127.147 98.0938 124.965 100.276 124.965 102.968C124.965 105.66 127.147 107.843 129.838 107.843Z" fill="#262C3D"/>
<path d="M261.637 173.905L0.362685 173.999C0.315056 173.999 0.267892 173.989 0.223889 173.971C0.179886 173.953 0.139906 173.926 0.106228 173.893C0.0725491 173.859 0.0458306 173.819 0.0276039 173.775C0.00937715 173.731 0 173.684 0 173.636C0 173.588 0.00937715 173.541 0.0276039 173.497C0.0458306 173.453 0.0725491 173.413 0.106228 173.38C0.139906 173.346 0.179886 173.319 0.223889 173.301C0.267892 173.283 0.315056 173.273 0.362685 173.273L261.637 173.18C261.733 173.18 261.825 173.218 261.893 173.286C261.961 173.354 261.999 173.446 261.999 173.542C261.999 173.638 261.961 173.731 261.893 173.799C261.825 173.867 261.733 173.905 261.637 173.905Z" fill="#F8F8F8"/>
</g>
<defs>
<clipPath id="clip0_519_36410">
<rect width="262" height="174" fill="white"/>
</clipPath>
</defs>
</svg>
